Coordinates
version=1
nRows=11
nColumns=36
inDegrees=yes

Units are S.I. units (second, meters, Newtons, ...)
If the header above contains a line with 'inDegrees', this indicates whether rotational values are in degrees (yes) or radians (no).

endheader
time	pelvis_tilt	pelvis_list	pelvis_rotation	pelvis_tx	pelvis_ty	pelvis_tz	hip_flexion_r	hip_adduction_r	hip_rotation_r	knee_angle_r	knee_angle_r_beta	ankle_angle_r	subtalar_angle_r	mtp_angle_r	hip_flexion_l	hip_adduction_l	hip_rotation_l	knee_angle_l	knee_angle_l_beta	ankle_angle_l	subtalar_angle_l	mtp_angle_l	lumbar_extension	lumbar_bending	lumbar_rotation	arm_flex_r	arm_add_r	arm_rot_r	elbow_flex_r	pro_sup_r	arm_flex_l	arm_add_l	arm_rot_l	elbow_flex_l	pro_sup_l
     14.90000000	      6.63582308	      7.74218836	    188.91531704	      0.70455529	      1.02305928	      0.83029026	     26.70696674	     -3.02000765	     -2.31300854	     36.08960450	      0.62988242	     16.61837483	      8.82018857	     -7.49999987	     33.10709479	    -14.61429641	     12.19397276	     40.69678473	      0.71029289	     20.48636555	      0.27812064	     -7.49999987	    -10.16091945	      7.21370825	     -2.92741150	      7.39936300	      0.45439999	     -2.47420165	     14.09438099	     79.49622948	     17.11464004	     -2.05260545	      2.56321731	     21.68063274	     80.70244570
     14.91666670	      7.32603441	      7.64723333	    188.40112292	      0.69910507	      1.01793745	      0.83169048	     28.36721175	     -3.29544074	     -1.33389854	     39.25785353	      0.68517880	     17.17875402	      8.80031686	     -7.49999987	     34.02882641	    -14.66319702	     12.37961224	     43.24949541	      0.75484609	     21.51675149	     -0.51931605	     -7.49999987	     -9.66882096	      6.90780205	     -2.73043444	      7.95069305	      0.26481230	     -2.41227848	     13.59642863	     78.29769174	     17.09670208	     -2.09338311	      2.65210252	     21.74606282	     79.48274628
     14.93333330	      8.22112549	      7.60929995	    188.54674433	      0.68943538	      1.01430517	      0.83596223	     29.49271337	     -3.77270685	     -0.81056701	     41.68775119	      0.72758852	     16.69950513	      9.71137463	     -7.49999987	     35.18142202	    -14.26162711	     13.28747544	     45.78603133	      0.79911700	     21.98798676	     -1.78650170	     -7.49999987	     -8.30129306	      6.67854832	     -2.99909499	      8.09214049	     -0.25219568	     -1.05423345	     13.41040669	     80.12728940	     17.89496581	     -2.04678638	      4.66708335	     18.65567948	     81.45895711
     14.95000000	      8.33482484	      7.31077559	    188.61717265	      0.67380617	      1.02042576	      0.84028389	     29.29114252	     -4.15184350	      0.34595911	     43.50690911	      0.75933881	     14.49626274	      9.62244374	     -7.49999987	     34.74448282	    -13.77875851	     13.90835132	     47.67106105	      0.83201697	     22.14575377	     -3.62869515	     -7.49999987	     -7.65987991	      6.24978760	     -3.39361850	      8.25008836	     -0.55338009	     -1.19229182	     12.90279912	     80.48504845	     17.96174011	     -2.01580606	      4.59154650	     17.05455977	     81.47192314
     14.96666670	      8.00843892	      6.91829746	    188.78100562	      0.65564175	      1.02788174	      0.84173456	     28.11752350	     -4.40581286	      1.70522853	     44.71705088	      0.78045977	      8.64941870	      9.45177196	     -7.49999987	     33.10796986	    -13.29596269	     14.44079774	     48.80034190	      0.85172664	     21.21824266	     -5.65041634	     -7.49999987	     -7.08128610	      5.67654033	     -3.88532895	      8.04898538	     -0.75332313	     -1.40069404	     12.29939308	     80.40077687	     17.62793643	     -2.13760053	      4.47686260	     15.53201869	     81.12433213
     14.98333330	      7.71432359	      6.73233542	    189.08093280	      0.63875548	      1.03216174	      0.84089184	     26.66512616	     -4.21608446	      3.17908897	     45.45808030	      0.79339317	      1.28889011	      9.25598217	     -7.49999987	     31.27595779	    -12.93175885	     15.40906347	     49.72029781	      0.86778290	     19.44284159	     -8.11600088	     -7.49999987	     -6.17798321	      5.22264056	     -4.35020587	      7.42512833	     -0.98330372	     -1.57785129	     12.04159483	     80.44117661	     16.74824693	     -2.34645485	      4.28440710	     14.50061264	     81.13829690
     15.00000000	      7.19128349	      6.66307317	    189.18004480	      0.62610335	      1.03275262	      0.83979268	     25.27078355	     -3.63449748	      4.86529132	     46.42765971	      0.81031553	     -5.08584127	      8.69051366	     -7.49999987	     29.29056170	    -12.81550930	     16.23758699	     50.91302292	      0.88859988	     17.47083521	    -10.31995680	     -7.49999987	     -5.57164222	      4.85746241	     -4.15532125	      6.81000208	     -1.40433122	     -1.77675345	     11.82266353	     80.42104221	     15.84093697	     -2.47120460	      3.96337114	     13.68981085	     81.04634096
     15.01666670	      6.54299870	      6.65591000	    189.14119496	      0.61830141	      1.03127422	      0.83972082	     24.51293186	     -2.96396609	      6.44172016	     48.41522889	      0.84500515	     -8.80731447	      7.60498864	     -7.49999987	     27.67941911	    -12.63211701	     17.05401766	     52.84950697	      0.92239790	     16.46412363	    -12.59840518	     -7.49999987	     -5.47039379	      4.65023735	     -3.48970347	      6.36890987	     -2.05731804	     -1.94751840	     11.91921708	     80.42895500	     15.07739746	     -2.48586718	      3.51378129	     13.25171830	     80.92926230
     15.03333330	      5.99668536	      6.77904973	    189.00852848	      0.61387021	      1.02903415	      0.84034071	     24.64563414	     -2.28431596	      7.59456639	     51.43085278	      0.89763772	     -9.41003512	      6.87672669	     -7.49999987	     26.75259395	    -12.39505331	     17.69276023	     55.23049657	      0.96395401	     16.43480160	    -13.86183549	     -7.49999987	     -5.62876992	      4.74744436	     -3.01382196	      6.36965168	     -2.82787307	     -2.00150407	     12.07495179	     80.42403786	     14.32904704	     -2.59977205	      3.37835922	     13.12946663	     80.88412079
     15.05000000	      5.46683677	      6.57008043	    188.01516438	      0.61077343	      1.02826847	      0.83946356	     25.30042254	     -1.54605415	      9.18629501	     54.72622025	      0.95515273	     -9.41186780	      3.87830036	     -7.49999987	     25.81364856	    -11.97225999	     17.34185080	     57.19812890	      0.99829568	     14.47131313	    -16.21702627	     -7.49999987	     -6.17252933	      4.41059361	     -1.17892008	      6.13994378	     -3.81856587	     -1.92080556	     12.92445201	     80.48213656	     13.76303811	     -2.59664476	      2.75506695	     13.65745468	     80.66692445
     15.06666670	      4.72946269	      6.47805513	    187.08389714	      0.60886590	      1.02929428	      0.83807083	     26.04007183	     -0.75283485	     10.13696175	     57.69408199	      1.00695169	     -7.07498163	      0.24514702	     -7.49999987	     25.24088274	    -11.56422134	     16.84110076	     59.06647922	      1.03090454	     13.19495359	    -17.57699043	     -7.49999987	     -7.17729578	      4.50830988	      0.14408585	      6.60975979	     -4.75571159	     -1.91327869	     13.89272823	     80.49833927	     13.27581514	     -2.79071627	      2.20096290	     14.00975891	     80.48158990
